PathFileType	4	(X/Y/Z)	C:\Users\WrightLab\Desktop\Jo\P5V45.trc
DataRate	CameraRate	NumFrames	NumMarkers	Units	OrigDataRate	OrigDataStartFrame	OrigNumFrames
100.00	100.00	       39	19	mm	100.00	1	       840
Frame#	Time	Headset_Front			Headset_Back			Headset_Left			Headset_Right			Left_Shoulder			Right_Shoulder			Sternum			C7			Left Elbow			Right Elbow			Left Wrist			Right Wrist			Left ASIS			Right ASIS			S2			Left Knee			Right Knee			Left Ankle			Right Ankle			
		X1	Y1	Z1	X2	Y2	Z2	X3	Y3	Z3	X4	Y4	Z4	X5	Y5	Z5	X6	Y6	Z6	X7	Y7	Z7	X8	Y8	Z8	X9	Y9	Z9	X10	Y10	Z10	X11	Y11	Z11	X12	Y12	Z12	X13	Y13	Z13	X14	Y14	Z14	X15	Y15	Z15	X16	Y16	Z16	X17	Y17	Z17	X18	Y18	Z18	X19	Y19	Z19	

1	0.000	-244.73549	1528.61047	-1057.43237																									-359.97116	1150.06409	-1100.21558				-236.21649	1055.08801	-915.73480	27.05004	923.05859	-1156.94055	-243.17490	930.89813	-1103.05005				62.71468	479.65121	-1194.31873	-318.64948	471.66476	-1153.83655							
2	0.010	-244.52205	1528.56934	-1057.18201																									-358.95108	1149.95947	-1099.67065				-235.87274	1056.14038	-912.97589	27.27839	922.81042	-1156.80286	-243.13040	930.87872	-1103.03748				63.57983	479.83334	-1193.97607	-318.19888	471.04758	-1153.45398							
3	0.020	-244.35080	1528.50659	-1057.16614																									-358.54813	1150.40039	-1098.62146				-236.25720	1056.16748	-911.44452	27.34718	922.80725	-1156.75195	-243.47386	931.46960	-1102.63342				63.69053	479.81784	-1193.93750	-317.97308	471.21896	-1153.16577							
4	0.030	-244.22020	1528.34387	-1056.87830																									-357.39063	1150.89697	-1097.93616				-236.26949	1057.48779	-910.90906	27.40441	922.79883	-1156.70959	-242.67163	930.72473	-1102.24927				63.62145	479.37619	-1193.72449	-318.19852	472.15085	-1152.20068							
5	0.040	-244.09996	1528.28821	-1056.86975																									-357.35220	1150.96899	-1097.93420				-236.26462	1058.52258	-910.00568	27.45011	922.80371	-1156.67566	-244.10831	932.70007	-1101.86450				64.22599	479.51486	-1193.43945	-316.99420	471.16330	-1152.19055							
6	0.050	-243.96628	1528.25305	-1056.85413																									-357.10162	1151.52954	-1096.90637				-236.26804	1059.74829	-908.71198	27.49754	922.79663	-1156.64050	-242.94066	931.56061	-1101.21350				64.31371	479.50278	-1193.40906	-316.94098	471.12793	-1152.22205							
7	0.060	-243.88011	1528.23523	-1056.84290																									-356.71927	1152.16614	-1097.02966				-235.72192	1060.49817	-907.99756	27.50468	922.79510	-1156.63525	-242.67610	931.65637	-1100.97339				65.39410	479.48920	-1193.74976	-316.82175	472.76334	-1151.39758							
8	0.070	-243.79030	1528.35547	-1057.10144																									-356.62567	1152.55615	-1096.70410				-235.32307	1061.75879	-907.23663	27.57050	922.81122	-1156.58643	-242.56256	931.65436	-1100.94495				65.56067	479.22873	-1193.66748	-316.65781	472.90866	-1151.13159							
9	0.080	-243.67667	1528.31348	-1057.09094																									-356.48584	1153.06018	-1096.02393				-235.02989	1062.47900	-906.25568	27.62181	922.39008	-1158.01965	-243.25137	932.81970	-1101.29077				65.79677	479.05719	-1193.57837	-315.66467	472.19238	-1150.93835							
10	0.090	-243.57773	1528.27905	-1057.08130																									-356.36734	1154.10156	-1095.75061				-235.60213	1064.48572	-906.55664	28.10941	922.62048	-1157.81494	-242.93129	932.76160	-1101.20642				66.43410	479.22610	-1193.74829	-315.38007	472.17874	-1150.74255							
11	0.100	-243.45795	1528.24780	-1057.06726																									-356.36673	1154.23096	-1095.76379				-234.96866	1065.28955	-905.31543	28.14914	922.63159	-1157.78552	-242.19823	932.76819	-1100.84924				66.63161	479.04916	-1193.97144	-315.35913	472.19180	-1150.73462							
12	0.110	-243.32909	1528.42896	-1057.12817																									-356.26016	1154.45801	-1095.81702				-234.85695	1065.39221	-905.28680	28.22119	922.64771	-1157.73206	-241.73628	932.68518	-1100.53040				66.86532	478.92825	-1193.83923	-315.28958	472.38403	-1150.76855							
13	0.120	-243.25145	1528.57715	-1057.41016																									-355.94028	1155.14478	-1094.99524				-234.41708	1066.14954	-904.28522	28.50901	922.90698	-1157.60217	-239.85527	931.46704	-1099.07092				67.00805	478.96194	-1193.44153	-315.84195	472.91324	-1150.56018							
14	0.130	-243.10712	1528.57861	-1057.38416																									-355.93362	1155.21057	-1094.67334				-234.14633	1067.16895	-903.03430	29.80128	923.05188	-1157.04968	-239.44270	931.38123	-1098.96118				66.93601	479.14502	-1193.04663	-315.26581	472.39838	-1150.75940							
15	0.140	-242.89296	1528.76013	-1057.33521																									-355.35925	1155.49536	-1094.51343				-233.94119	1068.46460	-902.35455	29.88712	923.06622	-1156.98596	-239.08266	931.30145	-1098.86511				67.18062	478.97253	-1193.05090	-315.10754	472.55554	-1150.46704							
16	0.150	-242.75272	1528.79102	-1057.30310																									-355.15570	1155.82971	-1094.35681				-233.65106	1068.54956	-901.72357	29.96227	923.06860	-1156.93030	-238.41258	931.36261	-1098.64221				67.34370	478.92084	-1192.73633	-315.00119	472.33807	-1150.40918							
17	0.160	-242.57735	1528.80420	-1057.26880																									-355.14755	1155.93347	-1094.08167				-233.22437	1068.98108	-901.51215	30.04925	923.08472	-1156.86584	-238.16353	931.31104	-1098.57605				67.35035	479.03152	-1192.26099	-314.82358	472.62521	-1150.17737							
18	0.170	-242.39853	1528.81421	-1057.23462																									-354.81842	1156.42224	-1093.43347				-232.86069	1069.74646	-900.98242	30.04525	922.47656	-1156.18982	-237.99236	931.26569	-1098.52979				67.34090	478.98892	-1192.24158	-314.40143	472.35736	-1150.48535							
19	0.180	-242.25253	1528.87708	-1057.54504																									-354.75482	1156.39417	-1093.41479				-233.57852	1070.34338	-899.23761	30.10938	922.47992	-1156.14233	-237.82352	931.23083	-1098.48486				67.24527	478.59232	-1192.08887	-314.22552	472.51709	-1150.36060							
20	0.190	-242.09343	1528.88208	-1057.51563																									-354.68579	1156.43494	-1092.78052				-233.89664	1070.59167	-898.78882	30.20630	922.50195	-1156.07043	-237.49384	931.32751	-1098.30164				67.41238	478.91214	-1191.83337	-313.80566	472.50208	-1150.08691							
21	0.200	-241.88091	1528.87646	-1057.47913																									-354.20709	1157.00684	-1092.61145				-233.65309	1070.78430	-898.00751	30.27139	922.50415	-1156.02222	-238.23064	932.62921	-1098.72034				67.33004	478.55020	-1191.69495	-313.63297	472.62967	-1150.02576							
22	0.210	-241.68245	1529.21094	-1057.98010																									-353.55661	1157.07764	-1092.34412				-233.72961	1070.76563	-897.90204	30.73420	922.74976	-1154.67859	-237.16188	931.42987	-1098.18970				67.24753	478.42413	-1191.65259	-313.42557	472.78345	-1149.79907							
23	0.220	-241.49718	1529.17139	-1057.95642																									-353.34732	1157.19739	-1092.00208				-233.67841	1071.24475	-897.31525	30.33838	922.41559	-1154.81140	-237.24904	931.39044	-1098.06042				67.17869	478.53168	-1191.18787	-313.38000	472.76199	-1149.77600							
24	0.230	-241.24767	1529.30664	-1057.94556																									-353.07379	1157.46411	-1091.66602				-233.49850	1071.41016	-896.94714	30.34774	922.26447	-1153.01599	-237.96652	932.03839	-1097.34961				67.27261	478.35568	-1190.97095	-313.17328	472.91653	-1149.72791							
25	0.240	-241.06990	1529.30188	-1057.91504																									-352.90494	1157.65881	-1091.29858				-233.45720	1071.83154	-896.09351	30.73953	922.02643	-1152.81165	-238.34106	932.90601	-1097.83435				67.17211	478.56149	-1190.49438	-312.63217	472.72314	-1149.71179							
26	0.250	-240.84947	1529.45129	-1058.02014																									-352.82938	1157.65723	-1091.27954				-232.97505	1074.08826	-896.30585	30.75010	922.01324	-1152.80383	-238.49995	932.84290	-1097.74670				67.15158	478.51492	-1190.47583	-312.55383	472.76801	-1149.80908							
27	0.260	-240.62102	1529.41431	-1057.98816																									-352.71246	1157.70105	-1090.84595				-233.38365	1073.66663	-895.03003	30.87809	922.02972	-1152.70911	-238.80757	932.74377	-1097.86438				66.01970	478.23541	-1189.71826	-312.46246	472.71396	-1149.78601							
28	0.270	-240.48563	1529.55481	-1058.58923																									-352.09760	1158.16028	-1090.09265				-232.86545	1074.31287	-895.63037	30.91935	922.26563	-1151.51294	-238.52005	931.90137	-1097.40308				65.05974	477.52155	-1189.24585	-312.40598	472.70334	-1149.77502							
29	0.280	-240.25830	1529.69531	-1058.71167																									-351.91348	1158.27295	-1090.18115				-233.15477	1073.88293	-894.72961	30.58612	921.72003	-1152.78906	-238.53334	931.90564	-1097.40674				65.07879	477.52411	-1188.82556	-312.37552	472.69095	-1149.76807							
30	0.290	-240.05820	1529.68030	-1058.67969																									-351.66055	1158.47571	-1089.70862				-233.02678	1074.19238	-894.35999	30.67607	921.94629	-1151.55664	-238.38544	932.04877	-1097.27942				65.06771	477.49582	-1188.81409	-312.38260	472.69183	-1149.76941							
31	0.300	-239.81134	1529.89819	-1058.78467																									-351.45145	1158.64526	-1089.64087				-233.17786	1075.01550	-894.35419	30.68692	921.56012	-1150.92859	-238.41925	932.06189	-1097.28894				64.59586	477.29077	-1188.62488	-312.43198	472.72424	-1149.78235							
32	0.310	-239.64726	1529.90466	-1058.75415																									-351.17972	1159.15454	-1088.65527				-233.62788	1075.41626	-894.02057	30.69282	921.55310	-1150.92419	-238.70938	931.95630	-1097.45459				64.35893	476.83536	-1188.40820	-312.47345	472.73135	-1149.79041							
33	0.320	-239.42833	1530.22717	-1059.17175																									-351.59222	1159.55640	-1088.66602				-233.79536	1075.40979	-893.50598	30.74619	921.53601	-1150.88477	-239.35417	933.13379	-1097.94714				64.36132	476.79938	-1188.38892	-312.49399	472.72964	-1149.79358							
34	0.330	-239.29408	1530.26465	-1059.13928																									-352.33466	1160.45142	-1088.53833				-234.99733	1074.63293	-891.75067	30.73629	921.50861	-1150.89197	-238.84940	931.98090	-1097.49146				64.49944	477.14136	-1186.89978	-312.58786	472.78149	-1149.81677							
35	0.340	-239.05180	1530.60596	-1059.13513																									-352.24994	1160.61951	-1088.59106				-235.25581	1074.49133	-891.32050	30.73807	921.48877	-1150.89063	-239.76350	933.34595	-1097.97559				64.63251	477.05130	-1186.61438	-313.10638	472.87439	-1149.71057							
36	0.350	-238.95123	1530.66467	-1059.10364																									-352.26837	1160.64587	-1088.59851				-235.79721	1074.87439	-891.07855	30.04399	921.91345	-1150.78894	-240.07750	933.50165	-1097.99646				64.70156	477.31396	-1185.63452	-313.18793	472.90567	-1149.72876							
37	0.360	-238.85971	1530.73840	-1059.07031																									-352.19107	1160.87158	-1088.11206				-235.61661	1075.14307	-890.50537	29.99041	921.55090	-1149.95471	-239.32140	932.05371	-1097.46741				64.61367	477.50446	-1185.32068	-313.80511	473.18631	-1149.64709							
38	0.370	-238.79524	1530.90027	-1059.34155																									-352.16736	1161.02893	-1087.62231				-235.76730	1076.51660	-890.62494	29.96295	921.49951	-1149.97485	-240.69614	933.78986	-1098.03564				64.62344	477.49054	-1185.31079	-313.87997	473.23578	-1149.66675							
39	0.380	-238.73132	1530.94702	-1059.62036																									-352.05328	1161.34485	-1087.35950				-235.77161	1076.52173	-890.62738	29.95446	922.10468	-1147.96289	-241.04840	933.93610	-1098.05603				64.68674	477.56387	-1184.87854	-314.07187	473.09018	-1149.91125							
